HIERARCHY
ROOT Hips
{
	OFFSET 0.000000 0.000000 0.000000
	CHANNELS 6 Xposition Yposition Zposition Zrotation Yrotation Xrotation 
	JOINT LowerBack
	{
		OFFSET 0.000000 0.000000 0.000000
		CHANNELS 3 Zrotation Yrotation Xrotation
		JOINT Spine
		{
			OFFSET 0.028270 2.035590 -0.193380
			CHANNELS 3 Zrotation Yrotation Xrotation
			JOINT Spine1
			{
				OFFSET 0.056720 2.048850 -0.042750
				CHANNELS 3 Zrotation Yrotation Xrotation
				JOINT Neck
				{
					OFFSET 0.000000 0.000000 0.000000
					CHANNELS 3 Zrotation Yrotation Xrotation
					JOINT Neck1
					{
						OFFSET -0.054170 1.746240 0.172020
						CHANNELS 3 Zrotation Yrotation Xrotation
						JOINT Head
						{
							OFFSET 0.104070 1.761360 -0.123970
							CHANNELS 3 Zrotation Yrotation Xrotation
							End Site
							{
								OFFSET 0.000000 0.000000 0.000000
							}
						}
					}
				}
				JOINT LeftShoulder
				{
					OFFSET 0.000000 0.000000 0.000000
					CHANNELS 3 Zrotation Yrotation Xrotation
					JOINT LeftArm
					{
						OFFSET 3.362410 1.200890 -0.311210
						CHANNELS 3 Zrotation Yrotation Xrotation
						JOINT LeftForeArm
						{
							OFFSET 4.983000 -0.000000 -0.000000
							CHANNELS 3 Zrotation Yrotation Xrotation
							JOINT LeftHand
							{
								OFFSET 3.483560 -0.000000 -0.000000
								CHANNELS 3 Zrotation Yrotation Xrotation
								JOINT LeftFingerBase
								{
									OFFSET 0.000000 0.000000 0.000000
									CHANNELS 3 Zrotation Yrotation Xrotation
									JOINT LeftHandIndex1
									{
										OFFSET 0.715260 -0.000000 -0.000000
										CHANNELS 3 Zrotation Yrotation Xrotation
										End Site
										{
											OFFSET 0.000000 0.000000 0.000000
										}
									}
								}
								JOINT LThumb
								{
									OFFSET 0.000000 0.000000 0.000000
									CHANNELS 3 Zrotation Yrotation Xrotation
									End Site
									{
										OFFSET 0.000000 0.000000 0.000000
									}
								}
							}
						}
					}
				}
				JOINT RightShoulder
				{
					OFFSET 0.000000 0.000000 0.000000
					CHANNELS 3 Zrotation Yrotation Xrotation
					JOINT RightArm
					{
						OFFSET -3.136600 1.374050 -0.404650
						CHANNELS 3 Zrotation Yrotation Xrotation
						JOINT RightForeArm
						{
							OFFSET -5.241900 -0.000000 -0.000000
							CHANNELS 3 Zrotation Yrotation Xrotation
							JOINT RightHand
							{
								OFFSET -3.444170 -0.000000 -0.000000
								CHANNELS 3 Zrotation Yrotation Xrotation
								JOINT RightFingerBase
								{
									OFFSET 0.000000 0.000000 0.000000
									CHANNELS 3 Zrotation Yrotation Xrotation
									JOINT RightHandIndex1
									{
										OFFSET -0.622530 -0.000000 -0.000000
										CHANNELS 3 Zrotation Yrotation Xrotation
										End Site
										{
											OFFSET 0.000000 0.000000 0.000000
										}
									}
								}
								JOINT RThumb
								{
									OFFSET 0.000000 0.000000 0.000000
									CHANNELS 3 Zrotation Yrotation Xrotation
									End Site
									{
										OFFSET 0.000000 0.000000 0.000000
									}
								}
							}
						}
					}
				}
			}
		}
	}
}
}
MOTION
Frames: 6
Frame Time: 0.008333
-0.151717 17.260176 -0.683111 176.842690 -86.265827 -163.863702 0.854213 -1.095327 -7.486740 -0.312578 -1.348967 -4.877898 -4.740138 -1.244878 -3.974973 4.945737 -1.818682 2.988196 -2.273992 -0.312612 2.973457 0.000000 0.000000 0.000000 6.738197 7.989981 -4.667854 -51.167342 -66.868349 -18.830640 177.150921 -66.905612 179.738071 12.319447 -11.712958 -1.402889 0.027996 1.240331 -0.000000 0.000000 0.000000 0.000000 0.000000 0.000000 0.000000 0.595606 -3.206123 -6.241155 54.948170 61.139131 -17.341825 -177.122153 74.204711 179.620149 -21.720010 30.240448 -6.226847 0.024386 -1.236593 -0.000000 0.000000 0.000000 0.000000 0.000000 0.000000 0.000000 
-0.144737 17.258647 -0.702066 176.795858 -86.167884 -163.799125 0.844098 -1.110697 -7.452727 -0.311763 -1.361211 -4.876273 -4.737788 -1.256602 -3.994882 4.904876 -1.901502 2.860213 -2.276698 -0.311229 2.939432 0.000000 0.000000 0.000000 6.694311 7.876775 -4.594992 -50.987989 -66.388225 -18.916060 177.221001 -67.471167 179.738815 12.316557 -11.732623 -1.404481 0.027561 1.237576 -0.000000 0.000000 0.000000 0.000000 0.000000 0.000000 0.000000 0.598157 -3.152793 -6.167438 55.100304 61.066915 -17.096932 -177.250716 75.268407 179.623492 -21.405371 29.788408 -6.037240 0.016185 -1.223682 -0.000000 0.000000 0.000000 0.000000 0.000000 0.000000 0.000000 
-0.137016 17.257016 -0.721422 176.662378 -86.082041 -163.647896 0.829725 -1.131091 -7.408636 -0.310961 -1.377457 -4.872974 -4.734335 -1.272420 -4.015351 4.863562 -1.991251 2.723460 -2.279372 -0.309732 2.902997 0.000000 0.000000 0.000000 6.663713 7.744056 -4.516867 -50.842150 -65.844112 -18.975498 177.297260 -68.095659 179.739660 12.317383 -11.741031 -1.405174 0.027001 1.234081 -0.000000 0.000000 0.000000 0.000000 0.000000 0.000000 0.000000 0.601131 -3.097057 -6.083998 55.323030 60.970728 -16.773492 -177.389577 76.393937 179.627069 -21.084185 29.332831 -5.848131 0.007869 -1.210573 -0.000000 0.000000 0.000000 0.000000 0.000000 0.000000 0.000000 
-0.128629 17.255297 -0.741185 176.452334 -86.007063 -163.420535 0.811701 -1.156683 -7.356377 -0.309808 -1.397999 -4.868289 -4.728914 -1.292687 -4.035840 4.819935 -2.086497 2.578232 -2.281212 -0.308077 2.864245 0.000000 0.000000 0.000000 6.644188 7.593890 -4.433235 -50.733705 -65.233946 -19.003802 177.379791 -68.784212 179.740605 12.325260 -11.729461 -1.404365 0.026234 1.229568 -0.000000 0.000000 0.000000 0.000000 0.000000 0.000000 0.000000 0.599069 -3.037780 -5.991319 55.624821 60.845215 -16.364606 -177.538472 77.581532 179.630788 -20.765928 28.884603 -5.664619 -0.000411 -1.197404 -0.000000 0.000000 0.000000 0.000000 0.000000 0.000000 0.000000 
-0.119733 17.253503 -0.761387 176.167385 -85.941783 -163.118144 0.790060 -1.187811 -7.299507 -0.308098 -1.423317 -4.862653 -4.720902 -1.317964 -4.055210 4.773441 -2.186887 2.424868 -2.282026 -0.306252 2.823270 0.000000 0.000000 0.000000 6.633114 7.428388 -4.344238 -50.665327 -64.557240 -18.996501 177.469120 -69.544689 179.741664 12.340411 -11.697207 -1.402053 0.025279 1.223944 -0.000000 0.000000 0.000000 0.000000 0.000000 0.000000 0.000000 0.591892 -2.976194 -5.890031 56.011901 60.691319 -15.863956 -177.697460 78.830440 179.634468 -20.466628 28.480774 -5.498306 -0.008468 -1.184565 -0.000000 0.000000 0.000000 0.000000 0.000000 0.000000 0.000000 
-0.110583 17.251623 -0.782041 175.817648 -85.883738 -162.749069 0.765331 -1.224048 -7.241218 -0.305726 -1.453173 -4.856436 -4.710249 -1.348079 -4.072116 4.724496 -2.291473 2.263685 -2.281673 -0.304246 2.780157 0.000000 0.000000 0.000000 6.627049 7.251030 -4.249794 -50.638395 -63.817213 -18.948845 177.565819 -70.383820 179.742899 12.361101 -11.639140 -1.397341 0.024181 1.217033 -0.000000 0.000000 0.000000 0.000000 0.000000 0.000000 0.000000 0.580205 -2.912087 -5.780608 56.487580 60.509185 -15.267278 -177.866983 80.145075 179.638085 -20.188495 28.133772 -5.351288 -0.016256 -1.172121 -0.000000 0.000000 0.000000 0.000000 0.000000 0.000000 0.000000 
